P3
3 3
255
255
255
255
255
255
255
255
255
255
251
251
251
79
79
79
255
255
255
255
255
255
250
250
250
255
255
255
