P1
3 3
000010000