P2
3 3
255
255
255
255
251
79
255
255
250
255
